HIERARCHY
ROOT Hips
{
	OFFSET 0.000000 0.000000 0.000000
	CHANNELS 6 Xposition Yposition Zposition Zrotation Yrotation Xrotation 
	JOINT LeftUpLeg_virtual
	{
		OFFSET 0.000000 0.000000 0.000000
		CHANNELS 3 Zrotation Yrotation Xrotation
		JOINT LeftUpLeg
		{
			OFFSET 8.479694 -4.795517 -0.379053
			CHANNELS 3 Zrotation Yrotation Xrotation
			JOINT LeftLeg
			{
				OFFSET 0.485052 -32.551468 0.112863
				CHANNELS 3 Zrotation Yrotation Xrotation
				JOINT LeftFoot
				{
					OFFSET 0.438033 -32.635670 -3.012641
					CHANNELS 3 Zrotation Yrotation Xrotation
					JOINT LeftToeBase
					{
						OFFSET 0.970169 -13.225353 11.864223
						CHANNELS 3 Zrotation Yrotation Xrotation
						End Site
						{
							OFFSET 0.000000 0.000000 0.000000
						}
					}
				}
			}
		}
	}
	JOINT RightUpLeg_virtual
	{
		OFFSET 0.000000 0.000000 0.000000
		CHANNELS 3 Zrotation Yrotation Xrotation
		JOINT RightUpLeg
		{
			OFFSET -8.479694 -4.795517 -0.379053
			CHANNELS 3 Zrotation Yrotation Xrotation
			JOINT RightLeg
			{
				OFFSET -0.484100 -32.551483 0.112903
				CHANNELS 3 Zrotation Yrotation Xrotation
				JOINT RightFoot
				{
					OFFSET -0.438985 -32.635651 -3.012681
					CHANNELS 3 Zrotation Yrotation Xrotation
					JOINT RightToeBase
					{
						OFFSET -0.970169 -13.225354 11.864223
						CHANNELS 3 Zrotation Yrotation Xrotation
						End Site
						{
							OFFSET 0.000000 0.000000 0.000000
						}
					}
				}
			}
		}
	}
	JOINT Spine_virtual
	{
		OFFSET 0.000000 0.000000 0.000000
		CHANNELS 3 Zrotation Yrotation Xrotation
		JOINT Spine
		{
			OFFSET 0.000000 7.722015 1.166203
			CHANNELS 3 Zrotation Yrotation Xrotation
			JOINT Spine1
			{
				OFFSET 0.000000 12.024086 0.248766
				CHANNELS 3 Zrotation Yrotation Xrotation
				JOINT Spine2
				{
					OFFSET -0.000000 11.503036 -0.491240
					CHANNELS 3 Zrotation Yrotation Xrotation
					JOINT Neck_virtual
					{
						OFFSET 0.000000 0.000000 0.000000
						CHANNELS 3 Zrotation Yrotation Xrotation
						JOINT Neck
						{
							OFFSET 0.000000 18.430687 -3.123054
							CHANNELS 3 Zrotation Yrotation Xrotation
							JOINT Head
							{
								OFFSET -0.000000 9.051071 1.034021
								CHANNELS 3 Zrotation Yrotation Xrotation
								End Site
								{
									OFFSET 0.000000 0.000000 0.000000
								}
							}
						}
					}
					JOINT LeftShoulder_virtual
					{
						OFFSET 0.000000 0.000000 0.000000
						CHANNELS 3 Zrotation Yrotation Xrotation
						JOINT LeftShoulder
						{
							OFFSET 6.197824 13.665230 -4.064723
							CHANNELS 3 Zrotation Yrotation Xrotation
							JOINT LeftArm
							{
								OFFSET 7.778132 -0.187073 -1.709282
								CHANNELS 3 Zrotation Yrotation Xrotation
								JOINT LeftForeArm
								{
									OFFSET 21.954697 0.000000 -2.041093
									CHANNELS 3 Zrotation Yrotation Xrotation
									JOINT LeftHand
									{
										OFFSET 22.992908 0.000000 -0.870901
										CHANNELS 3 Zrotation Yrotation Xrotation
										End Site
										{
											OFFSET 0.000000 0.000000 0.000000
										}
									}
								}
							}
						}
					}
					JOINT RightShoulder_virtual
					{
						OFFSET 0.000000 0.000000 0.000000
						CHANNELS 3 Zrotation Yrotation Xrotation
						JOINT RightShoulder
						{
							OFFSET -6.197824 13.665230 -4.064723
							CHANNELS 3 Zrotation Yrotation Xrotation
							JOINT RightArm
							{
								OFFSET -7.778132 -0.187073 -1.709282
								CHANNELS 3 Zrotation Yrotation Xrotation
								JOINT RightForeArm
								{
									OFFSET -21.954697 0.000000 -2.041093
									CHANNELS 3 Zrotation Yrotation Xrotation
									JOINT RightHand
									{
										OFFSET -22.992908 0.000000 -0.870901
										CHANNELS 3 Zrotation Yrotation Xrotation
										End Site
										{
											OFFSET 0.000000 0.000000 0.000000
										}
									}
								}
							}
						}
					}
				}
			}
		}
	}
}
MOTION
Frames: 11
Frame Time: 0.033333
-117.581711 81.251984 -41.755318 0.307654 -17.656568 -0.212037 -3.892366 -3.586409 17.153795 -2.540159 0.508874 -49.384300 6.765747 -0.842740 30.363828 -7.338996 -8.470027 -4.455930 0.000000 0.000000 0.000000 0.868201 -7.176269 17.327425 -7.037862 1.056434 -19.355071 1.569949 4.423587 37.890167 7.482144 2.996907 -12.281256 0.000000 0.000000 0.000000 2.271526 1.565288 3.094585 7.096136 5.879316 -10.552755 -1.963609 -4.391810 8.700809 0.048290 0.196510 0.004208 -1.804631 -3.083727 7.564632 -3.444708 -10.001567 0.542748 0.000000 0.000000 0.000000 0.708510 -3.050581 3.800407 2.303646 3.200604 7.645210 -65.930204 -4.559479 14.979693 -168.094726 -86.249491 -155.523804 0.000000 0.000000 0.000000 -5.219519 -0.811281 2.538838 27.580024 9.490221 12.678071 60.431096 8.741607 -9.912544 -176.894072 62.875675 -169.670464 0.000000 0.000000 0.000000 
-119.145844 80.827377 -39.946880 0.317678 -17.309762 -0.171299 -3.805463 -3.964956 17.528217 -3.355344 0.800240 -50.871789 6.871813 -0.498267 25.828475 -7.532235 -9.051940 -4.167603 0.000000 0.000000 0.000000 1.057368 -8.077073 17.975432 -7.091093 0.738268 -18.008808 1.624028 4.312201 37.325782 7.396065 3.730621 -13.076807 0.000000 0.000000 0.000000 2.579007 1.011693 3.442858 6.949490 5.888790 -10.956060 -2.158781 -3.930557 8.533675 0.097143 0.331149 0.005517 -1.919739 -3.239467 7.418063 -3.870320 -9.803468 0.472220 0.000000 0.000000 0.000000 0.468129 -2.927873 3.716065 1.934046 3.486767 7.749394 -65.980249 -4.418756 14.850633 -173.202888 -86.214678 -150.237866 0.000000 0.000000 0.000000 -5.486837 -0.705483 2.474002 27.637845 9.534515 13.056754 60.448410 8.861992 -9.255166 -176.959000 63.396682 -169.011255 0.000000 0.000000 0.000000 
-120.687134 80.384125 -37.885139 0.377984 -17.148230 -0.310625 -3.631241 -4.531199 18.142475 -4.270777 1.127900 -51.932394 6.999807 -0.336693 23.352108 -7.634388 -9.642476 -4.016863 0.000000 0.000000 0.000000 1.248971 -8.913480 18.812078 -7.297876 0.515375 -16.332219 1.637697 4.122919 36.405578 7.370975 4.521222 -13.509008 0.000000 0.000000 0.000000 2.812496 0.726240 3.858490 6.678004 6.381050 -11.354955 -2.420628 -4.107311 8.404216 0.085297 0.318082 -0.026438 -2.148858 -3.112350 7.255502 -4.281395 -9.497535 0.479701 0.000000 0.000000 0.000000 0.268648 -2.854284 3.604950 1.727302 3.807879 7.615594 -66.058461 -4.313056 14.510368 -172.855094 -86.174434 -150.521305 0.000000 0.000000 0.000000 -5.706882 -0.550980 2.315706 27.723422 9.595676 13.277985 60.389288 8.918176 -8.748899 -177.024406 63.910695 -168.359027 0.000000 0.000000 0.000000 
-122.228065 79.950104 -35.563332 0.471360 -17.115652 -0.345748 -3.304953 -5.427435 18.794618 -5.167772 1.542034 -52.463250 7.278314 -0.162208 22.619165 -7.861958 -10.355782 -4.036901 0.000000 0.000000 0.000000 1.490708 -9.596733 19.515112 -7.650117 0.336208 -14.397750 1.608564 3.857682 35.138175 7.475925 5.323724 -13.353678 0.000000 0.000000 0.000000 2.992005 0.172764 4.109369 6.326219 6.483782 -11.728769 -2.635281 -3.870328 8.277819 0.063836 0.379652 -0.011797 -2.331346 -2.868057 7.060093 -4.685527 -9.200027 0.559290 0.000000 0.000000 0.000000 0.083363 -2.566105 3.462748 1.481256 4.034936 7.727271 -65.998165 -4.689982 14.160426 -175.205062 -86.117935 -148.188003 0.000000 0.000000 0.000000 -5.859697 -0.483688 2.255794 27.704497 9.906257 13.521377 60.144508 9.155015 -8.461060 -177.175148 64.478912 -167.802093 0.000000 0.000000 0.000000 
-123.764114 79.587097 -32.959980 0.409775 -16.723177 -0.201830 -3.074950 -5.638532 19.066690 -6.349237 2.027622 -52.270331 7.231717 0.585974 22.671022 -7.138963 -9.711512 -2.711377 0.000000 0.000000 0.000000 1.744416 -9.557830 19.769472 -8.406532 0.512450 -12.330280 1.776050 4.207252 34.316721 8.898339 7.327564 -11.477173 0.000000 0.000000 0.000000 3.197616 -0.176425 4.173948 5.878569 6.721100 -12.144171 -2.833182 -3.873008 8.107835 0.091353 0.319449 -0.050893 -2.507416 -2.659609 6.949226 -4.934294 -8.963822 0.612419 0.000000 0.000000 0.000000 -0.094909 -2.521949 3.411949 1.254482 4.198635 7.649797 -66.010336 -5.139780 13.936140 -176.421259 -86.008549 -147.056609 0.000000 0.000000 0.000000 -5.971476 -0.398058 1.984701 27.537098 9.858774 13.865863 59.649640 9.552743 -8.701304 -177.740278 64.978021 -167.742684 0.000000 0.000000 0.000000 
-125.309708 79.339897 -30.116415 0.389306 -16.067754 -0.130447 -3.354139 -5.782872 18.961896 -8.155494 3.199113 -51.371246 7.636551 2.896151 23.316323 -4.874249 -7.189028 -0.725530 0.000000 0.000000 0.000000 2.156267 -9.519563 19.692685 -9.323993 0.530157 -9.942839 2.096557 4.790938 33.504305 10.947241 9.571892 -8.455365 0.000000 0.000000 0.000000 3.395792 -0.357292 4.005289 5.352731 6.818766 -12.438554 -3.007102 -3.902433 8.063633 0.053529 0.074118 -0.037930 -2.703541 -2.650316 6.806696 -5.275700 -8.754903 0.705289 0.000000 0.000000 0.000000 -0.235346 -2.475611 3.342132 1.099961 4.281340 7.433760 -66.127433 -5.592234 13.986572 -178.191467 -85.843716 -145.396600 0.000000 0.000000 0.000000 -6.021997 -0.322541 1.908841 27.502983 9.887464 14.006581 58.770445 9.800156 -8.974964 -177.536588 64.931835 -167.018602 0.000000 0.000000 0.000000 
-126.808319 79.221657 -27.163881 0.152779 -15.461207 -0.115555 -3.244167 -6.500318 18.653513 -8.890692 3.021056 -49.557848 8.178335 3.557633 23.954933 -4.733736 -6.993136 0.156538 0.000000 0.000000 0.000000 2.712718 -9.522740 19.816571 -10.309184 0.301046 -8.177580 2.685580 5.801739 33.346753 13.367794 11.830794 -5.192399 0.000000 0.000000 0.000000 3.714170 -0.748816 3.804882 4.865896 6.954610 -12.550636 -3.112898 -3.890254 7.999222 0.036557 -0.022973 -0.007671 -2.830101 -2.388398 6.662105 -5.471882 -8.652510 0.865452 0.000000 0.000000 0.000000 -0.362358 -2.417040 3.202325 1.012355 4.366646 7.155956 -66.394548 -6.011138 14.244806 -177.426595 -85.736667 -146.269799 0.000000 0.000000 0.000000 -6.254690 -0.242913 1.726274 27.370786 9.973231 14.133715 57.926978 10.287106 -9.546433 -177.647169 64.993211 -166.736105 0.000000 0.000000 0.000000 
-128.232452 79.241615 -24.124685 -0.540618 -14.940813 -0.121152 -2.800989 -7.048043 18.200274 -9.382250 2.631253 -47.177421 8.343932 3.441706 24.252697 -5.794482 -7.859285 0.452233 0.000000 0.000000 0.000000 3.292984 -9.652204 19.507807 -11.360847 -0.424843 -6.743295 2.842042 5.996352 34.978819 14.718469 12.756950 -2.303235 0.000000 0.000000 0.000000 4.317554 -1.036275 3.663908 4.653877 7.049326 -12.537921 -3.113655 -3.804369 7.939437 -0.017281 -0.045257 -0.032012 -3.099358 -2.769941 6.528689 -5.698173 -8.573395 0.949883 0.000000 0.000000 0.000000 -0.556783 -2.387280 3.000994 0.965452 4.492429 6.994163 -66.795275 -6.365019 14.889758 -176.782904 -85.504768 -147.015287 0.000000 0.000000 0.000000 -6.447270 -0.229282 1.650452 27.244820 10.040124 14.135159 57.226743 10.692587 -10.200624 -177.462317 64.681236 -166.342127 0.000000 0.000000 0.000000 
-129.575623 79.382156 -21.131561 -0.834105 -14.548945 -0.120540 -2.752766 -7.665565 17.755147 -9.971925 1.926369 -44.636478 8.421418 3.093652 24.265480 -7.280876 -9.122064 0.289955 0.000000 0.000000 0.000000 3.682100 -9.751942 19.142570 -12.507051 -1.631773 -6.328763 2.840331 5.580622 37.964958 15.223202 13.079261 0.360708 0.000000 0.000000 0.000000 4.611166 -1.047651 3.459710 4.383307 7.349908 -12.533512 -3.164185 -3.928801 7.801149 -0.105214 -0.235914 -0.042950 -3.292044 -2.294347 6.322402 -5.868230 -8.625699 1.074560 0.000000 0.000000 0.000000 -0.653842 -2.318110 2.847677 0.977837 4.503780 6.769726 -67.342967 -6.588138 15.598591 -175.706193 -85.538974 -148.162868 0.000000 0.000000 0.000000 -6.516145 -0.142997 1.369963 27.073628 9.959743 14.037967 56.629553 10.906362 -10.596956 -177.699543 64.405945 -166.518605 0.000000 0.000000 0.000000 
-130.906616 79.648201 -18.319714 -0.791861 -14.477704 -0.123704 -2.603995 -7.997504 17.542735 -10.304741 1.365205 -42.081762 8.414220 2.033520 24.203260 -9.348988 -10.964236 -0.831108 0.000000 0.000000 0.000000 3.674164 -9.593924 18.773624 -13.464518 -3.289036 -7.657350 2.345770 4.514122 43.240299 14.174126 12.622992 1.829671 0.000000 0.000000 0.000000 4.650890 -1.063559 3.398971 4.249038 7.251269 -12.605003 -3.239728 -3.726731 7.584111 -0.049602 -0.155844 -0.052304 -3.419328 -2.680273 6.060475 -6.204595 -8.567403 1.152461 0.000000 0.000000 0.000000 -0.858294 -2.267238 2.633644 0.814004 4.593625 6.680179 -67.670393 -6.851636 16.181628 -177.480184 -85.680263 -146.459227 0.000000 0.000000 0.000000 -6.461635 -0.051235 1.169778 27.004258 10.038401 14.100749 56.167279 11.015185 -10.741658 -177.574714 64.077515 -166.492432 0.000000 0.000000 0.000000 
-132.229477 79.967628 -15.697990 -0.800618 -14.597084 -0.034145 -2.572251 -8.086610 17.537860 -10.523946 0.917309 -39.859451 8.226819 0.173012 24.257731 -10.456204 -12.263495 -3.476803 0.000000 0.000000 0.000000 3.229716 -9.032433 18.496644 -14.071773 -4.972211 -11.215317 1.760553 3.368912 50.490261 12.211718 11.852158 0.618549 0.000000 0.000000 0.000000 4.608967 -1.133932 3.268408 4.351086 7.444620 -12.505408 -3.265060 -3.572626 7.390229 -0.094016 -0.060757 -0.056901 -3.445102 -2.478461 5.813046 -6.377924 -8.704783 1.124935 0.000000 0.000000 0.000000 -1.010905 -2.134485 2.502841 0.877190 4.547928 6.651483 -68.051996 -7.210336 16.590012 179.344334 -85.795925 -143.389071 0.000000 0.000000 0.000000 -6.482283 -0.026927 0.995333 26.942144 10.092821 13.927954 56.196642 10.811734 -10.514488 -177.406828 63.844818 -166.541390 0.000000 0.000000 0.000000 
